<svg xmlns="http://www.w3.org/2000/svg" width="13.989" height="14.613" viewBox="0 0 13.989 14.613"><path d="M32.455,17.162,31.2,16.437a5.675,5.675,0,0,0,0-2.068l1.255-.725a.356.356,0,0,0,.162-.412,7.338,7.338,0,0,0-1.612-2.787.355.355,0,0,0-.436-.068l-1.255.725a5.56,5.56,0,0,0-1.791-1.034V8.621a.353.353,0,0,0-.277-.345,7.407,7.407,0,0,0-3.217,0,.353.353,0,0,0-.277.345v1.45A5.736,5.736,0,0,0,21.96,11.1l-1.252-.725a.35.35,0,0,0-.436.068,7.294,7.294,0,0,0-1.612,2.787.352.352,0,0,0,.162.412l1.255.725a5.675,5.675,0,0,0,0,2.068l-1.255.725a.356.356,0,0,0-.162.412,7.338,7.338,0,0,0,1.612,2.787.355.355,0,0,0,.436.068l1.255-.725a5.56,5.56,0,0,0,1.791,1.034v1.45a.353.353,0,0,0,.277.345,7.407,7.407,0,0,0,3.217,0,.353.353,0,0,0,.277-.345v-1.45a5.736,5.736,0,0,0,1.791-1.034l1.255.725a.35.35,0,0,0,.436-.068,7.294,7.294,0,0,0,1.612-2.787A.364.364,0,0,0,32.455,17.162Zm-6.818.6A2.357,2.357,0,1,1,27.994,15.4,2.36,2.36,0,0,1,25.637,17.76Z" transform="translate(-18.644 -8.099)" fill="#e0e0e0"/></svg>