<svg xmlns="http://www.w3.org/2000/svg" width="9" height="10.286" viewBox="0 0 9 10.286"><path d="M6.75,5.866v.482a.242.242,0,0,1-.241.241H4.982V8.116a.242.242,0,0,1-.241.241H4.259a.242.242,0,0,1-.241-.241V6.589H2.491a.242.242,0,0,1-.241-.241V5.866a.242.242,0,0,1,.241-.241H4.018V4.1a.242.242,0,0,1,.241-.241h.482a.242.242,0,0,1,.241.241V5.625H6.509A.242.242,0,0,1,6.75,5.866ZM9,2.25V9.321a.965.965,0,0,1-.964.964H.964A.965.965,0,0,1,0,9.321V2.25a.965.965,0,0,1,.964-.964h.964V.241A.242.242,0,0,1,2.17,0h.8a.242.242,0,0,1,.241.241V1.286H5.786V.241A.242.242,0,0,1,6.027,0h.8a.242.242,0,0,1,.241.241V1.286h.964A.965.965,0,0,1,9,2.25ZM8.036,9.2V3.214H.964V9.2a.121.121,0,0,0,.121.121h6.83A.121.121,0,0,0,8.036,9.2Z" fill="#e0e0e0"/></svg>