<svg xmlns="http://www.w3.org/2000/svg" width="14.81" height="16.926" viewBox="0 0 14.81 16.926"><path d="M14.462,13.339,10.588,7.108V2.116h.264a.791.791,0,0,0,.793-.793V.793A.791.791,0,0,0,10.852,0H3.976a.791.791,0,0,0-.793.793v.529a.792.792,0,0,0,.793.793h.264V7.108L.366,13.339a2.348,2.348,0,0,0,1.987,3.587H12.475A2.347,2.347,0,0,0,14.462,13.339Zm-9.894-2.76L6.161,8.013a1.047,1.047,0,0,0,.192-.608V2.116H8.469V7.405a1.064,1.064,0,0,0,.192.608l1.593,2.565Z" transform="translate(-0.009)" fill="#e0e0e0"/></svg>