<svg xmlns="http://www.w3.org/2000/svg" width="13.815" height="13.818" viewBox="0 0 13.815 13.818"><path d="M9.374,12.234C8.97,9.747,8.018,8,6.909,8S4.847,9.747,4.443,12.234Zm-5.14,2.674a17.461,17.461,0,0,0,.092,1.783H9.489a17.461,17.461,0,0,0,.092-1.783,17.462,17.462,0,0,0-.092-1.783H4.326A17.461,17.461,0,0,0,4.234,14.909Zm9.046-2.674a6.923,6.923,0,0,0-4.4-3.945,9.4,9.4,0,0,1,1.393,3.945ZM4.936,8.29a6.919,6.919,0,0,0-4.4,3.945H3.546A9.364,9.364,0,0,1,4.936,8.29Zm8.642,4.836h-3.2c.059.585.092,1.184.092,1.783s-.033,1.2-.092,1.783h3.193a6.849,6.849,0,0,0,.24-1.783,6.969,6.969,0,0,0-.237-1.783ZM3.343,14.909c0-.6.033-1.2.092-1.783H.24a6.754,6.754,0,0,0,0,3.566H3.432C3.376,16.107,3.343,15.508,3.343,14.909Zm1.1,2.674c.4,2.488,1.357,4.234,2.465,4.234s2.062-1.747,2.465-4.234Zm4.438,3.945a6.93,6.93,0,0,0,4.4-3.945H10.274A9.4,9.4,0,0,1,8.881,21.528ZM.538,17.583a6.923,6.923,0,0,0,4.4,3.945,9.4,9.4,0,0,1-1.393-3.945H.538Z" transform="translate(0 -8)" fill="#e0e0e0"/></svg>